<svg version="1.1" viewBox="0 0 480 480" xmlns="http://www.w3.org/2000/svg" xmlns:xlink="http://www.w3.org/1999/xlink" id="Capa_1" overflow="hidden"><style>
.MsftOfcThm_Background1_Fill {
 fill:#FFFFFF; 
}
</style>
<g><g><path d=" M 336 240 L 336 48 L 335.928 48 C 335.954 45.887 335.136 43.852 333.656 42.344 L 293.656 2.344 C 292.149 0.862 290.114 0.041 288 0.064 L 288 0 L 8 0 C 3.582 0 0 3.582 0 8 L 0 464 C 0 472.837 7.163 480 16 480 L 336 480 C 344.837 480 352 472.837 352 464 L 352 256 C 352 247.163 344.837 240 336 240 Z M 296 27.312 L 308.688 40 L 296 40 L 296 27.312 Z M 16 16 L 280 16 L 280 48 C 280 52.418 283.582 56 288 56 L 320 56 L 320 240 L 228 240 L 206.4 211.2 C 204.889 209.186 202.518 208 200 208 L 40 208 C 35.582 208 32 211.582 32 216 L 32 240 L 16 240 L 16 16 Z M 208 240 L 180 240 L 168 224 L 196 224 L 208 240 Z M 160 240 L 132 240 L 120 224 L 148 224 L 160 240 Z M 112 240 L 48 240 L 48 224 L 100 224 L 112 240 Z M 336 464 L 16 464 L 16 256 L 336 256 L 336 464 Z" class="MsftOfcThm_Background1_Fill" stroke="none" stroke-width="1" stroke-linecap="butt" stroke-dasharray="" stroke-dashoffset="1" fill="#FFFFFF" fill-opacity="1"/></g></g><g><g><path d=" M 312 368 L 200 368 C 195.582 368 192 371.582 192 376 L 192 440 C 192 444.418 195.582 448 200 448 L 312 448 C 316.418 448 320 444.418 320 440 L 320 376 C 320 371.582 316.418 368 312 368 Z M 304 432 L 208 432 L 208 384 L 304 384 L 304 432 Z" class="MsftOfcThm_Background1_Fill" stroke="none" stroke-width="1" stroke-linecap="butt" stroke-dasharray="" stroke-dashoffset="1" fill="#FFFFFF" fill-opacity="1"/></g></g><g><g><path d=" M 478.656 75.56 L 430.656 3.56 C 427.914 -0.116 422.711 -0.873 419.035 1.869 C 418.393 2.348 417.823 2.918 417.344 3.56 L 369.344 75.56 C 368.467 76.875 368 78.42 368 80 L 368 472 C 368 476.418 371.582 480 376 480 L 472 480 C 476.418 480 480 476.418 480 472 L 480 80 C 480 78.42 479.533 76.875 478.656 75.56 Z M 464 464 L 384 464 L 384 400 L 400 400 C 404.418 400 408 396.418 408 392 L 408 296 L 424 296 L 424 392 C 424 396.418 427.582 400 432 400 L 464 400 L 464 464 Z M 464 384 L 440 384 L 440 288 C 440 283.582 436.418 280 432 280 L 400 280 C 395.582 280 392 283.582 392 288 L 392 384 L 384 384 L 384 82.4 L 424 22.4 L 464 82.4 L 464 384 Z" class="MsftOfcThm_Background1_Fill" stroke="none" stroke-width="1" stroke-linecap="butt" stroke-dasharray="" stroke-dashoffset="1" fill="#FFFFFF" fill-opacity="1"/></g></g><g><g><rect x="32" y="24" width="136" height="16" class="MsftOfcThm_Background1_Fill" stroke="none" stroke-width="1" stroke-linecap="butt" stroke-dasharray="" stroke-dashoffset="1" fill="#FFFFFF" fill-opacity="1"/></g></g><g><g><path d=" M 285.368 82.92 C 285.32 82.864 285.304 82.8 285.256 82.744 C 276.439 73.886 265.205 67.825 252.96 65.32 L 252.88 65.32 C 251.072 64.952 249.232 64.688 247.376 64.48 C 247.08 64.48 246.792 64.376 246.488 64.352 C 244.344 64.112 242.184 64 240 64 C 204.654 64 176 92.654 176 128 C 176 163.346 204.654 192 240 192 C 275.346 191.966 303.973 163.285 303.939 127.939 C 303.923 111.072 297.249 94.893 285.368 82.92 Z M 248 80.688 C 248.304 80.736 248.608 80.768 248.912 80.824 C 249.744 81.016 250.552 81.216 251.368 81.416 C 252.232 81.624 253.104 81.824 253.952 82.08 C 254.592 82.272 255.208 82.52 255.84 82.744 C 259.265 83.944 262.542 85.53 265.608 87.472 C 266.088 87.776 266.584 88.064 267.064 88.392 C 267.304 88.56 267.528 88.744 267.768 88.912 L 248 108.688 L 248 80.688 Z M 232 80.72 L 232 120 L 192.72 120 C 196.148 99.896 211.896 84.148 232 80.72 Z M 267.944 167.072 C 259.792 172.896 250.019 176.018 240 176 C 216.596 175.976 196.621 159.077 192.72 136 L 240 136 C 242.124 135.991 244.159 135.146 245.664 133.648 L 279.08 100.224 C 294.465 121.759 289.479 151.687 267.944 167.072 Z" class="MsftOfcThm_Background1_Fill" stroke="none" stroke-width="1" stroke-linecap="butt" stroke-dasharray="" stroke-dashoffset="1" fill="#FFFFFF" fill-opacity="1"/></g></g><g><g><rect x="32" y="48" width="64" height="16" class="MsftOfcThm_Background1_Fill" stroke="none" stroke-width="1" stroke-linecap="butt" stroke-dasharray="" stroke-dashoffset="1" fill="#FFFFFF" fill-opacity="1"/></g></g><g><g><path d=" M 155.752 89.184 L 94.632 127.376 L 65.936 120.176 C 63.598 119.59 61.12 120.09 59.192 121.536 L 27.192 145.536 L 36.792 158.336 L 65.752 136.688 L 94.056 143.76 C 96.162 144.286 98.391 143.934 100.232 142.784 L 164.232 102.784 L 155.752 89.184 Z" class="MsftOfcThm_Background1_Fill" stroke="none" stroke-width="1" stroke-linecap="butt" stroke-dasharray="" stroke-dashoffset="1" fill="#FFFFFF" fill-opacity="1"/></g></g><g><g><path d=" M 312 272 L 40 272 C 35.582 272 32 275.582 32 280 L 32 312 C 32 316.418 35.582 320 40 320 L 312 320 C 316.418 320 320 316.418 320 312 L 320 280 C 320 275.582 316.418 272 312 272 Z M 304 304 L 48 304 L 48 288 L 304 288 L 304 304 Z" class="MsftOfcThm_Background1_Fill" stroke="none" stroke-width="1" stroke-linecap="butt" stroke-dasharray="" stroke-dashoffset="1" fill="#FFFFFF" fill-opacity="1"/></g></g><g></g><g></g><g></g><g></g><g></g><g></g><g></g><g></g><g></g><g></g><g></g><g></g><g></g><g></g><g></g></svg>