<svg version="1.1" viewBox="0 0 96 96" xmlns="http://www.w3.org/2000/svg" xmlns:xlink="http://www.w3.org/1999/xlink" id="Icons_Umbrella" overflow="hidden"><style>
.MsftOfcThm_Accent2_Fill {
 fill:#ED7D31; 
}
</style>
<path d=" M 50 10 L 50 7.5 C 50 6.4 49.1 5.5 48 5.5 C 46.9 5.5 46 6.4 46 7.5 L 46 10 C 24.8 11 8 26.7 8 46 C 8 46.6 8.4 47 9 47 C 9.6 47 10 46.6 10 46 C 10 40 15.4 35.2 22 35.2 C 28.6 35.2 34 40 34 46 C 34 46.6 34.4 47 35 47 C 35.6 47 36 46.6 36 46 C 36 40.7 40.3 36.2 46 35.4 L 46 76 L 45 76 L 45 80.5 C 45 81.6 44.1 82.5 43 82.5 C 41.9 82.5 41 81.6 41 80.5 C 41 78.8 39.7 77.5 38 77.5 C 36.3 77.5 35 78.8 35 80.5 C 35 84.9 38.6 88.5 43 88.5 C 47.4 88.5 51 84.9 51 80.5 L 51 76 L 50 76 L 50 35.4 C 55.7 36.3 60 40.7 60 46 C 60 46.6 60.4 47 61 47 C 61.6 47 62 46.6 62 46 C 62 40 67.4 35.2 74 35.2 C 80.6 35.2 86 40 86 46 C 86 46.6 86.4 47 87 47 C 87.6 47 88 46.6 88 46 C 88 26.7 71.2 11 50 10 Z" class="MsftOfcThm_Accent2_Fill" stroke="none" stroke-width="1" stroke-linecap="butt" fill="#ED7D31" fill-opacity="1"/></svg>