<svg version="1.1" viewBox="0 0 480 480" xmlns="http://www.w3.org/2000/svg" xmlns:xlink="http://www.w3.org/1999/xlink" id="Capa_1" overflow="hidden"><style>
.MsftOfcThm_Background1_Fill {
 fill:#FFFFFF; 
}
</style>
<g><g><path d=" M 303.998 0 C 259.453 -0.033 216.587 16.995 184.206 47.584 C 126.686 25.232 61.937 53.741 39.585 111.26 C 34.538 124.248 31.965 138.066 31.998 152 L 31.998 168 C 31.998 172.418 35.58 176 39.998 176 C 40.429 175.968 40.857 175.901 41.278 175.8 C 44.976 208.214 60.94 237.984 85.894 259 C 86.574 259.568 87.302 260.056 87.998 260.6 L 87.998 290.24 L 21.47 312.416 C 18.495 313.409 16.374 316.049 16.046 319.168 L 0.046 471.168 C -0.413 475.562 2.776 479.497 7.171 479.957 C 7.445 479.985 7.722 480 7.998 480 L 279.998 480 C 284.416 479.996 287.994 476.41 287.99 471.992 C 287.99 471.727 287.976 471.463 287.95 471.2 L 275.15 349.512 C 284.679 351.15 294.329 351.983 303.998 352 C 401.2 352 479.998 273.202 479.998 176 C 479.998 78.798 401.2 0 303.998 0 Z M 87.998 464 L 16.878 464 L 31.414 325.96 L 87.998 307.104 L 87.998 464 Z M 274.118 18.856 L 294.174 69 C 296.986 75.964 304.251 80.048 311.662 78.832 L 349.262 72.576 L 383.43 106.752 L 376.662 147.368 L 309.462 194.424 L 304.934 171.792 C 303.647 165.32 298.502 160.313 291.998 159.2 L 255.998 152.8 L 255.998 152 C 255.949 111.956 234.525 74.985 199.806 55.032 C 220.933 36.602 246.579 24.117 274.118 18.856 Z M 47.998 152 C 47.998 98.981 90.979 56 143.998 56 C 197.017 56 239.998 98.981 239.998 152 L 215.998 152 C 193.918 151.974 176.024 134.08 175.998 112 C 176.002 107.582 172.423 103.997 168.005 103.993 C 167.419 103.993 166.835 104.056 166.262 104.184 L 161.462 105.256 C 121.088 114.178 82.653 130.302 47.998 152.856 L 47.998 152 Z M 103.998 464 L 103.998 357.768 L 132.35 348.32 L 112.278 421.92 C 111.76 423.818 111.959 425.84 112.838 427.6 L 131.054 464 L 103.998 464 Z M 103.998 340.896 L 103.998 324.944 L 123.142 334.544 L 103.998 340.896 Z M 128.518 423.16 L 143.998 366.4 L 159.478 423.16 L 143.998 454.112 L 128.518 423.16 Z M 183.998 464 L 156.942 464 L 175.15 427.576 C 176.029 425.816 176.228 423.794 175.71 421.896 L 155.638 348.296 L 183.998 357.768 L 183.998 464 Z M 183.998 340.896 L 164.854 334.496 L 183.998 324.944 L 183.998 340.896 Z M 183.998 307.048 L 143.998 327.048 L 103.998 307.048 L 103.998 270.64 C 116.439 276.78 130.124 279.982 143.998 280 C 157.873 279.979 171.557 276.774 183.998 270.632 L 183.998 307.048 Z M 191.854 246.672 C 164.137 269.779 123.867 269.779 96.15 246.672 C 72.55 226.823 58.178 198.123 56.422 167.336 L 56.358 166.536 C 88.323 145.65 123.689 130.502 160.862 121.776 C 165.638 148.493 188.857 167.959 215.998 168 L 231.574 168 C 229.66 198.555 215.304 226.99 191.854 246.672 Z M 199.998 464 L 199.998 307.104 L 256.582 325.96 L 271.118 464 L 199.998 464 Z M 303.998 336 C 293.716 335.931 283.464 334.859 273.39 332.8 L 271.95 319.128 C 271.622 316.009 269.501 313.369 266.526 312.376 L 199.998 290.24 L 199.998 260.568 C 200.694 260.024 201.414 259.536 202.102 258.968 C 229.085 236.323 245.542 203.558 247.598 168.392 L 247.598 168 L 247.998 168 C 248.308 167.958 248.615 167.896 248.918 167.816 L 289.222 174.928 L 293.758 197.6 C 294.816 202.9 298.477 207.308 303.494 209.32 C 304.715 209.787 305.988 210.104 307.286 210.264 C 300.505 212.737 296.249 219.478 296.934 226.664 L 302.71 290.192 C 303.496 298.994 311.268 305.491 320.07 304.705 C 323.133 304.431 326.052 303.281 328.478 301.392 L 383.054 258.936 C 389.644 253.776 391.163 244.419 386.542 237.44 L 376.71 222.68 C 374.13 218.807 369.992 216.248 365.374 215.672 L 314.974 209.376 C 316.25 208.937 317.465 208.338 318.59 207.592 L 385.79 160.544 C 389.305 158.069 391.686 154.294 392.406 150.056 L 399.174 109.448 C 400.028 104.345 398.362 99.145 394.702 95.488 L 360.566 61.256 C 356.91 57.607 351.717 55.947 346.622 56.8 L 309.022 63.064 L 290.462 16.664 C 294.958 16.28 299.454 16 303.998 16 C 355.524 16.044 403.866 40.938 433.83 82.856 L 421.03 95.656 C 417.586 99.088 415.895 103.904 416.438 108.736 L 423.902 175.816 L 417.11 216.536 C 415.903 223.808 419.821 230.963 426.598 233.864 L 448.894 243.416 C 422.679 299.802 366.18 335.903 303.998 336 Z M 312.846 225.168 L 363.366 231.48 L 373.206 246.248 L 318.638 288.696 L 312.846 225.168 Z M 432.926 219.152 L 439.726 178.4 C 439.961 176.961 439.999 175.497 439.838 174.048 L 432.374 106.936 L 442.718 96.592 C 465.933 136.676 470.404 184.924 454.95 228.592 L 432.926 219.152 Z" class="MsftOfcThm_Background1_Fill" stroke="none" stroke-width="1" stroke-linecap="butt" stroke-dasharray="" stroke-dashoffset="1" fill="#FFFFFF" fill-opacity="1"/></g></g><g></g><g></g><g></g><g></g><g></g><g></g><g></g><g></g><g></g><g></g><g></g><g></g><g></g><g></g><g></g></svg>