<svg version="1.1" viewBox="0 0 480.21 480.21" xmlns="http://www.w3.org/2000/svg" xmlns:xlink="http://www.w3.org/1999/xlink" id="Capa_1" overflow="hidden"><style>
.MsftOfcThm_Background1_Fill {
 fill:#FFFFFF; 
}
</style>
<g><g><path d=" M 372.189 256.191 L 320.261 190.087 C 338.7 171.183 349.835 146.35 351.685 120.007 L 432.093 120.007 L 432.093 128.807 C 413.48 132.632 400.114 149.005 400.093 168.007 C 400.098 190.098 418.01 208.003 440.101 207.999 C 462.192 207.995 480.097 190.082 480.093 167.991 C 480.089 148.986 466.714 132.608 448.093 128.807 L 448.093 112.007 C 448.093 107.589 444.511 104.007 440.093 104.007 L 351.685 104.007 C 350.121 81.842 341.957 60.652 328.245 43.167 L 339.405 32.007 L 433.565 32.007 C 437.983 44.504 451.696 51.053 464.192 46.634 C 476.689 42.216 483.238 28.503 478.819 16.007 C 474.4 3.511 460.689 -3.039 448.193 1.379 C 441.358 3.795 435.982 9.172 433.566 16.006 L 336.094 16.006 C 333.972 16.006 331.938 16.85 330.438 18.35 L 317.518 31.27 C 273.06 -11.546 202.31 -10.215 159.493 34.243 C 141.295 53.139 130.324 77.835 128.502 104.006 L 61.302 104.006 L 35.149 45.183 C 46.84 39.03 51.33 24.566 45.178 12.875 C 39.026 1.184 24.561 -3.305 12.87 2.847 C 1.18 8.999 -3.31 23.463 2.842 35.154 C 6.075 41.298 11.819 45.735 18.581 47.31 L 48.781 115.262 C 50.067 118.149 52.933 120.008 56.093 120.006 L 128.501 120.006 C 130.343 146.046 141.263 170.614 159.357 189.43 L 91.821 256.966 C 48.152 250.423 7.447 280.519 0.904 324.188 C -5.639 367.857 24.457 408.562 68.126 415.105 C 69.444 415.303 70.767 415.467 72.093 415.598 L 72.093 456.006 C 72.093 460.424 75.675 464.006 80.093 464.006 L 153.565 464.006 C 157.983 476.503 171.696 483.052 184.192 478.633 C 196.688 474.214 203.238 460.502 198.819 448.006 C 194.4 435.51 180.688 428.96 168.192 433.379 C 161.357 435.795 155.981 441.172 153.565 448.006 L 88.093 448.006 L 88.093 415.598 C 132.031 411.218 164.1 372.048 159.72 328.109 C 156.756 298.377 137.46 272.778 109.693 261.742 L 171.293 200.142 C 211.409 231.728 267.875 231.955 308.245 200.694 L 352.629 257.19 C 291.344 265.739 248.593 322.35 257.142 383.634 C 265.691 444.919 322.302 487.67 383.586 479.121 C 444.871 470.572 487.622 413.961 479.073 352.677 C 471.565 298.847 426.504 258.17 372.189 256.191 Z M 464.093 168.007 C 464.093 181.262 453.348 192.007 440.093 192.007 C 426.838 192.007 416.093 181.262 416.093 168.007 C 416.093 154.752 426.838 144.007 440.093 144.007 C 453.348 144.007 464.093 154.752 464.093 168.007 Z M 456.093 16.007 C 460.511 16.007 464.093 19.589 464.093 24.007 C 464.093 28.425 460.511 32.007 456.093 32.007 C 451.675 32.007 448.093 28.425 448.093 24.007 C 448.093 19.589 451.675 16.007 456.093 16.007 Z M 24.093 32.007 C 19.675 32.007 16.093 28.425 16.093 24.007 C 16.093 19.589 19.675 16.007 24.093 16.007 C 28.511 16.007 32.093 19.589 32.093 24.007 C 32.093 28.425 28.511 32.007 24.093 32.007 Z M 176.093 448.007 C 180.511 448.007 184.093 451.589 184.093 456.007 C 184.093 460.425 180.511 464.007 176.093 464.007 C 171.675 464.007 168.093 460.425 168.093 456.007 C 168.093 451.589 171.675 448.007 176.093 448.007 Z M 112.093 391.351 C 92.322 402.897 67.864 402.897 48.093 391.351 L 48.093 376.007 C 48.093 358.334 62.42 344.007 80.093 344.007 C 97.766 344.007 112.093 358.334 112.093 376.007 L 112.093 391.351 Z M 64.093 312.007 C 64.093 303.17 71.256 296.007 80.093 296.007 C 88.93 296.007 96.093 303.17 96.093 312.007 C 96.093 320.844 88.93 328.007 80.093 328.007 C 71.256 328.007 64.093 320.843 64.093 312.007 Z M 128.093 293.535 C 138.435 305.262 144.127 320.37 144.093 336.007 C 144.09 351.553 138.399 366.56 128.093 378.199 L 128.093 376.007 C 128.083 358.517 118.56 342.416 103.237 333.983 C 115.44 321.199 114.968 300.943 102.184 288.74 C 89.4 276.538 69.144 277.009 56.941 289.793 C 45.138 302.158 45.138 321.617 56.941 333.982 C 41.621 342.417 32.102 358.517 32.093 376.006 L 32.093 378.198 C 8.714 351.688 11.252 311.245 37.761 287.866 C 64.271 264.487 104.714 267.025 128.093 293.535 Z M 296.093 189.799 C 262.696 214.045 217.49 214.045 184.093 189.799 L 184.093 170.407 C 184.093 155.827 195.913 144.007 210.493 144.007 L 228.253 144.007 L 216.645 173.031 C 215.456 176.004 216.155 179.401 218.421 181.663 L 234.421 197.663 C 237.545 200.786 242.609 200.786 245.733 197.663 L 261.733 181.663 C 263.999 179.4 264.698 176.004 263.509 173.031 L 251.909 144.007 L 269.693 144.007 C 284.273 144.007 296.093 155.827 296.093 170.407 L 296.093 189.799 Z M 241.238 59.887 C 240.938 60.387 240.694 60.917 240.51 61.47 C 236.462 73.606 214.607 78.206 200.535 79.542 C 202.681 52.732 215.297 40.006 240.094 40.006 C 262.798 40.006 275.294 50.742 278.87 73.142 L 252.214 57.142 C 248.424 54.87 243.51 56.099 241.238 59.887 Z M 251.125 75.159 L 279.717 92.319 C 276.509 111.903 252.373 128.007 240.093 128.007 C 222.25 124.968 207.407 112.595 201.205 95.591 C 214.901 94.463 239.629 90.311 251.125 75.159 Z M 246.701 174.079 L 240.093 180.695 L 233.485 174.079 L 240.093 157.543 L 246.701 174.079 Z M 274.997 128.375 C 287.477 118.554 295.156 103.86 296.093 88.007 C 296.093 35.111 265.637 24.007 240.093 24.007 C 214.549 24.007 184.093 35.111 184.093 88.007 C 185.023 103.869 192.703 118.573 205.189 128.399 C 183.983 131.012 168.062 149.04 168.093 170.407 L 168.093 175.271 C 133.024 135.507 136.83 74.842 176.595 39.773 C 216.36 4.704 277.024 8.51 312.093 48.274 C 344.093 84.559 344.093 138.985 312.093 175.27 L 312.093 170.406 C 312.136 149.031 296.212 130.988 274.997 128.375 Z M 424.093 445.799 C 390.696 470.045 345.49 470.045 312.093 445.799 L 312.093 426.407 C 312.093 411.827 323.913 400.007 338.493 400.007 L 356.253 400.007 L 344.645 429.031 C 343.456 432.004 344.155 435.4 346.421 437.663 L 362.421 453.663 C 365.545 456.786 370.609 456.786 373.733 453.663 L 389.733 437.663 C 391.999 435.4 392.698 432.004 391.509 429.031 L 379.909 400.007 L 397.693 400.007 C 412.273 400.007 424.093 411.827 424.093 426.407 L 424.093 445.799 Z M 379.125 331.159 L 379.125 331.151 L 407.717 348.311 C 404.509 367.903 380.373 384.007 368.093 384.007 C 350.25 380.968 335.407 368.595 329.205 351.591 C 342.901 350.463 367.629 346.31 379.125 331.159 Z M 328.533 335.543 L 328.533 335.543 C 330.677 308.735 343.293 296.007 368.093 296.007 C 390.797 296.007 403.293 306.743 406.869 329.143 L 380.213 313.143 C 376.424 310.87 371.51 312.099 369.237 315.888 C 368.937 316.388 368.693 316.918 368.509 317.471 C 364.461 329.607 342.605 334.207 328.533 335.543 Z M 374.701 430.079 L 368.093 436.695 L 361.485 430.079 L 368.093 413.543 L 374.701 430.079 Z M 440.093 431.294 L 440.093 426.406 C 440.136 405.03 424.212 386.988 402.997 384.374 C 415.477 374.553 423.156 359.859 424.093 344.006 C 424.093 291.11 393.637 280.006 368.093 280.006 C 342.549 280.006 312.093 291.11 312.093 344.006 C 313.023 359.868 320.703 374.572 333.189 384.398 C 311.983 387.011 296.062 405.039 296.093 426.406 L 296.093 431.27 C 261.106 391.475 265.004 330.851 304.799 295.864 C 344.594 260.877 405.218 264.775 440.205 304.57 C 455.621 322.104 464.114 344.658 464.093 368.005 C 464.088 391.325 455.552 413.836 440.093 431.294 Z" class="MsftOfcThm_Background1_Fill" stroke="none" stroke-width="1" stroke-linecap="butt" stroke-dasharray="" stroke-dashoffset="1" fill="#FFFFFF" fill-opacity="1"/></g></g><g></g><g></g><g></g><g></g><g></g><g></g><g></g><g></g><g></g><g></g><g></g><g></g><g></g><g></g><g></g></svg>