<svg version="1.1" viewBox="0 0 96 96" xmlns="http://www.w3.org/2000/svg" xmlns:xlink="http://www.w3.org/1999/xlink" id="Icons_Hourglass" overflow="hidden"><style>
.MsftOfcThm_Accent2_Fill {
 fill:#ED7D31; 
}
</style>
<path d=" M 53.6 53.3 C 57 56 60.2 60.7 62.6 66 L 33.4 66 C 35.9 60.7 39 55.9 42.4 53.3 C 44 52 45 50.1 45 48 C 45 45.9 44 44 42.4 42.7 C 35.6 37.4 29.7 23.8 28.7 14 L 67.4 14 C 66.3 23.8 60.5 37.4 53.7 42.7 C 52 44 51 45.9 51 48 C 51 50.1 52 52 53.6 53.3 Z M 73.3 14 L 76 14 L 76 8 L 20 8 L 20 14 L 22.6 14 C 23.7 25.1 30.1 41.3 39.4 48 C 30.1 54.7 23.6 70.9 22.6 82 L 20 82 L 20 88 L 76 88 L 76 82 L 73.3 82 C 72.3 70.9 65.8 54.7 56.5 48 C 65.8 41.3 72.3 25.1 73.3 14 Z" class="MsftOfcThm_Accent2_Fill" stroke="none" stroke-width="1" stroke-linecap="butt" fill="#ED7D31" fill-opacity="1"/></svg>