<svg version="1.1" viewBox="0 0 96 96" xmlns="http://www.w3.org/2000/svg" xmlns:xlink="http://www.w3.org/1999/xlink" id="Icons_SmartPhone" overflow="hidden"><path d=" M 66 80 L 30 80 L 30 16 L 66 16 L 66 80 Z M 44 8 L 52 8 C 53.1 8 54 8.9 54 10 C 54 11.1 53.1 12 52 12 L 44 12 C 42.9 12 42 11.1 42 10 C 42 8.9 42.9 8 44 8 Z M 70 4 L 26 4 C 24.9 4 24 4.9 24 6 L 24 90 C 24 91.1 24.9 92 26 92 L 70 92 C 71.1 92 72 91.1 72 90 L 72 6 C 72 4.9 71.1 4 70 4 Z" stroke="none" stroke-width="1" stroke-linecap="butt" fill="#E78C42" fill-opacity="1"/></svg>